<svg width="106" height="20" viewBox="0 0 106 20" fill="none" xmlns="http://www.w3.org/2000/svg">
<path d="M8.73639 17.9928C8.15773 18.8328 7.45773 19.3928 6.63639 19.6728C5.83373 19.9342 4.94706 19.9902 3.97639 19.8408C3.00573 19.7102 1.99773 19.4582 0.952393 19.0848L1.87639 15.8088C2.47373 16.0515 3.06173 16.2288 3.64039 16.3408C4.23773 16.4342 4.76039 16.4435 5.20839 16.3688C5.86173 16.2755 6.26306 15.8462 6.41239 15.0808C6.56173 14.3155 6.63639 13.2982 6.63639 12.0288V0.184846H9.91239V12.0288C9.91239 13.3728 9.82839 14.5395 9.66039 15.5288C9.49239 16.5182 9.18439 17.3395 8.73639 17.9928Z" fill="#231D4F"/>
<path d="M16.7553 19.9248C15.3367 19.8502 14.2633 19.4488 13.5353 18.7208C12.8073 17.9742 12.4433 16.9475 12.4433 15.6408C12.4433 14.6888 12.686 13.8768 13.1713 13.2048C13.6567 12.5142 14.3007 11.9728 15.1033 11.5808C15.906 11.1888 16.7927 10.9462 17.7633 10.8528C18.7527 10.7595 19.7513 10.8248 20.7593 11.0488V10.1808C20.7593 9.58351 20.5167 9.15418 20.0313 8.89285C19.546 8.63151 18.9487 8.51018 18.2393 8.52885C17.5487 8.54751 16.8487 8.68751 16.1393 8.94885C15.4487 9.19151 14.8887 9.54618 14.4593 10.0128L12.5833 7.96885C13.2927 7.27818 14.1327 6.73685 15.1033 6.34485C16.074 5.95285 17.0727 5.72885 18.0993 5.67285C19.1447 5.61685 20.1247 5.73818 21.0393 6.03685C21.9727 6.33551 22.738 6.82085 23.3353 7.49285C23.802 8.01551 24.0633 8.70618 24.1193 9.56485C24.1753 10.4235 24.2033 11.3662 24.2033 12.3928V19.7848H20.7873V18.4968C20.2087 19.0382 19.5647 19.4208 18.8553 19.6448C18.146 19.8502 17.446 19.9435 16.7553 19.9248ZM20.6753 15.8368V13.4288C18.734 13.2795 17.3807 13.4008 16.6153 13.7928C15.8687 14.1848 15.4953 14.7915 15.4953 15.6128C15.4953 16.1355 15.6727 16.5182 16.0273 16.7608C16.4007 16.9848 16.858 17.0968 17.3993 17.0968C17.9593 17.0782 18.5287 16.9662 19.1073 16.7608C19.7047 16.5368 20.2273 16.2288 20.6753 15.8368Z" fill="#231D4F"/>
<path d="M30.2728 19.5328C29.4514 19.1595 28.7794 18.6182 28.2568 17.9088C27.7341 17.1808 27.3421 16.3502 27.0808 15.4168C26.8381 14.4835 26.7168 13.5222 26.7168 12.5328C26.7168 11.2448 26.9501 10.0782 27.4168 9.03285C27.8834 7.98751 28.5648 7.15685 29.4608 6.54085C30.3754 5.90618 31.4954 5.58885 32.8208 5.58885C33.2501 5.58885 33.7448 5.63551 34.3048 5.72885C34.8834 5.82218 35.3501 5.99951 35.7048 6.26085V0.184846H39.0648V19.7848H35.7048V18.6648C35.3874 19.0382 34.9021 19.3368 34.2488 19.5608C33.5954 19.7662 32.9048 19.8688 32.1768 19.8688C31.4674 19.8875 30.8328 19.7755 30.2728 19.5328ZM35.7048 15.8648V9.42485C34.7341 9.03285 33.8194 8.90218 32.9608 9.03285C32.1208 9.16351 31.4301 9.52751 30.8888 10.1248C30.3661 10.7035 30.1048 11.5062 30.1048 12.5328C30.1048 13.7462 30.3661 14.7075 30.8888 15.4168C31.4114 16.1075 32.0928 16.5088 32.9328 16.6208C33.7914 16.7142 34.7154 16.4622 35.7048 15.8648Z" fill="#231D4F"/>
<path d="M64.6209 5.78485L59.8609 19.7848H55.7729L52.8329 10.3488L49.9209 19.7848H45.8329L41.0449 5.78485H44.8249L47.8489 16.0888L51.0969 5.78485H54.5969L57.8449 16.0608L60.8409 5.78485H64.6209Z" fill="#231D4F"/>
<path d="M69.7749 19.9248C68.3562 19.8502 67.2829 19.4488 66.5549 18.7208C65.8269 17.9742 65.4629 16.9475 65.4629 15.6408C65.4629 14.6888 65.7055 13.8768 66.1909 13.2048C66.6762 12.5142 67.3202 11.9728 68.1229 11.5808C68.9255 11.1888 69.8122 10.9462 70.7829 10.8528C71.7722 10.7595 72.7709 10.8248 73.7789 11.0488V10.1808C73.7789 9.58351 73.5362 9.15418 73.0509 8.89285C72.5655 8.63151 71.9682 8.51018 71.2589 8.52885C70.5682 8.54751 69.8682 8.68751 69.1589 8.94885C68.4682 9.19151 67.9082 9.54618 67.4789 10.0128L65.6029 7.96885C66.3122 7.27818 67.1522 6.73685 68.1229 6.34485C69.0935 5.95285 70.0922 5.72885 71.1189 5.67285C72.1642 5.61685 73.1442 5.73818 74.0589 6.03685C74.9922 6.33551 75.7575 6.82085 76.3549 7.49285C76.8215 8.01551 77.0829 8.70618 77.1389 9.56485C77.1949 10.4235 77.2229 11.3662 77.2229 12.3928V19.7848H73.8069V18.4968C73.2282 19.0382 72.5842 19.4208 71.8749 19.6448C71.1655 19.8502 70.4655 19.9435 69.7749 19.9248ZM73.6949 15.8368V13.4288C71.7535 13.2795 70.4002 13.4008 69.6349 13.7928C68.8882 14.1848 68.5149 14.7915 68.5149 15.6128C68.5149 16.1355 68.6922 16.5182 69.0469 16.7608C69.4202 16.9848 69.8775 17.0968 70.4189 17.0968C70.9789 17.0782 71.5482 16.9662 72.1269 16.7608C72.7242 16.5368 73.2469 16.2288 73.6949 15.8368Z" fill="#231D4F"/>
<path d="M83.3763 19.7848H80.0163V0.184846H83.3763V19.7848Z" fill="#231D4F"/>
<path d="M88.2126 4.13285C87.634 4.13285 87.1486 3.93685 86.7566 3.54485C86.3646 3.15285 86.1686 2.66751 86.1686 2.08885C86.1686 1.52885 86.3646 1.05285 86.7566 0.660846C87.1486 0.268846 87.634 0.0728455 88.2126 0.0728455C88.7726 0.0728455 89.2486 0.268846 89.6406 0.660846C90.0326 1.05285 90.2286 1.52885 90.2286 2.08885C90.2286 2.66751 90.0326 3.15285 89.6406 3.54485C89.2486 3.93685 88.7726 4.13285 88.2126 4.13285ZM89.7526 19.7848H86.6726V5.78485H89.7526V19.7848Z" fill="#231D4F"/>
<path d="M105.632 19.7848H102.272V11.6088C102.272 10.8435 102.123 10.2742 101.824 9.90085C101.544 9.50885 101.189 9.24751 100.76 9.11685C100.349 8.98618 99.9479 8.92085 99.5559 8.92085C99.1826 8.92085 98.7439 8.98618 98.2399 9.11685C97.7546 9.24751 97.3253 9.50885 96.9519 9.90085C96.5786 10.2742 96.3919 10.8435 96.3919 11.6088V19.7848H93.0319V5.78485H96.3919V6.79285C96.7093 6.36351 97.2039 6.06485 97.8759 5.89685C98.5479 5.71018 99.1919 5.61685 99.8079 5.61685C101.003 5.61685 102.029 5.86885 102.888 6.37285C103.765 6.87685 104.437 7.57685 104.904 8.47285C105.389 9.36885 105.632 10.4142 105.632 11.6088V19.7848Z" fill="#231D4F"/>
</svg>
