<svg width="16" height="22" viewBox="0 0 16 22" fill="none" xmlns="http://www.w3.org/2000/svg">
<path d="M8.66234 19.7036C7.33734 19.7026 6.06684 19.1759 5.12973 18.2392C4.1926 17.3024 3.66538 16.0322 3.66376 14.7072H2.00013C2.00013 16.4738 2.70192 18.1681 3.95114 19.4173C5.20033 20.6665 6.89464 21.3683 8.66128 21.3683C10.4279 21.3683 12.1222 20.6665 13.3714 19.4173C14.6206 18.1681 15.3224 16.4738 15.3224 14.7072V0.628906H0.0555456V5.34805H1.71917V2.29333H13.6564V14.7061C13.6556 16.0307 13.1292 17.3008 12.193 18.2377C11.2567 19.1747 9.98689 19.7019 8.66234 19.7036Z" fill="#BB6BD9"/>
</svg>
